# xmcd
#
# Track frame offsets:
# 150
# 17546
# 36544
# 56406
# 73174
# 94095
# 107232
# 121773
# 143096
# 161076
# 196500
# 226358
#
# Disc length: 4155 seconds
#
#
# Revision: 0
# Processed by: cddbd v1.5.1PL2 Copyright (c) Steve Scherf et al.
# Submitted via: FreeRIP 2.53 
#
DISCID=9d10390c
DTITLE=Silvan Zingg - In Concerto
DYEAR=2002
DGENRE=Boogie Woogie
TTITLE0=The Blues
TTITLE1=Boogie Woogie Ambassador
TTITLE2=Boogie For Clarence
TTITLE3=Miss Fred Dee
TTITLE4=Lugano Blues
TTITLE5=Il Treno Merci
TTITLE6=Ticino Boogie
TTITLE7=Solemio
TTITLE8=Ciribiribin
TTITLE9=Im Keller
TTITLE10=Jam Au Riches Claires
TTITLE11=4 x Multimedia Video Tracks
EXTD=
EXTT0=
EXTT1=
EXTT2=
EXTT3=
EXTT4=
EXTT5=
EXTT6=
EXTT7=
EXTT8=
EXTT9=
EXTT10=
EXTT11=
PLAYORDER=
